<svg xmlns="http://www.w3.org/2000/svg" width="24" height="24" viewBox="0 0 24 24" fill="#fff">
  <path d="M12 .297C5.373.297 0 5.67 0 12.297c0 5.29 3.438 9.773 8.207 11.366.6.113.793-.258.793-.577 0-.285-.01-1.04-.015-2.042-3.338.725-4.042-1.61-4.042-1.61-.546-1.385-1.333-1.755-1.333-1.755-1.088-.744.082-.729.082-.729 1.203.085 1.837 1.236 1.837 1.236 1.07 1.832 2.807 1.303 3.492.996.108-.775.42-1.303.762-1.603-2.665-.303-5.467-1.334-5.467-5.93 0-1.31.468-2.38 1.236-3.22-.123-.304-.536-1.524.117-3.176 0 0 1.008-.322 3.3 1.23a11.509 11.509 0 0 1 3.003-.404 11.5 11.5 0 0 1 3.003.404c2.29-1.552 3.297-1.23 3.297-1.23.655 1.652.242 2.872.12 3.176.77.84 1.235 1.91 1.235 3.22 0 4.607-2.807 5.625-5.48 5.922.43.372.815 1.103.815 2.222 0 1.604-.014 2.896-.014 3.29 0 .32.192.694.8.576C20.565 22.067 24 17.584 24 12.297 24 5.67 18.627.297 12 .297z"/>
</svg>