<svg width="40" height="40" viewBox="0 0 40 40" fill="none" xmlns="http://www.w3.org/2000/svg">
  <rect width="40" height="40" rx="10" fill="#FFFFFF"/>
  <path d="M20.0002 17.5002V23.5H28.4002C27.6002 26.5 24.7002 29.5 20.0002 29.5C14.5002 29.5 10.0002 25 10.0002 19.5C10.0002 14 14.5002 9.5 20.0002 9.5C23.0002 9.5 25.2002 10.5 26.9002 12.1L22.9002 16.1C21.9002 15.1 21.0002 14.5 20.0002 14.5C17.4002 14.5 15.4002 16.5 15.4002 19.5C15.4002 22.5 17.4002 24.5 20.0002 24.5C21.6002 24.5 22.6002 23.9 23.2002 23.2C23.6002 22.7 23.8002 22.1 23.9002 21.5H20.0002Z" fill="#4285F4"/>
</svg>